<svg width="21" height="21" viewBox="0 0 21 21" fill="none" xmlns="http://www.w3.org/2000/svg">
<path d="M16.7525 16.9745C18.333 15.453 19.3006 13.4047 19.472 11.2175C18.6276 10.7008 17.6686 10.4005 16.6803 10.3435C15.6919 10.2865 14.7048 10.4744 13.8065 10.8905C15.1664 12.7128 16.1663 14.7777 16.7525 16.9745ZM15.4625 18.011C14.9494 15.7189 13.9499 13.5638 12.5315 11.6915C11.4094 12.6108 10.6581 13.9053 10.4166 15.3356C10.175 16.7659 10.4596 18.2353 11.2175 19.472C12.7335 19.3527 14.1942 18.85 15.4625 18.011ZM9.50754 19.4465C8.82191 17.9416 8.65271 16.2523 9.02624 14.6412C9.39977 13.0302 10.2951 11.5877 11.573 10.538C11.2146 10.1443 10.8377 9.7679 10.4435 9.41004C9.39581 10.6847 7.95715 11.5784 6.35024 11.9528C4.74334 12.3273 3.0578 12.1617 1.55454 11.4815C1.77447 13.5183 2.68555 15.4183 4.13604 16.865C5.57986 18.3125 7.47518 19.2229 9.50754 19.445V19.4465ZM1.53054 9.77604C2.76635 10.5272 4.23179 10.8069 5.6574 10.5639C7.083 10.3208 8.37294 9.57124 9.29004 8.45304C7.42208 7.0431 5.27396 6.04933 2.99004 5.53854C2.15276 6.80476 1.65058 8.26278 1.53054 9.77604ZM4.02804 4.24854C6.21644 4.83269 8.27393 5.82733 10.091 7.17954C10.5064 6.28419 10.6949 5.30036 10.64 4.3149C10.585 3.32944 10.2883 2.37266 9.77604 1.52904C7.59208 1.70266 5.54733 2.67008 4.02804 4.24854ZM11.483 1.55454C12.434 3.65304 12.368 6.09954 11.285 8.14854C11.8326 8.63354 12.3505 9.15097 12.836 9.69804C13.8507 9.16433 14.974 8.86971 16.12 8.83669C17.266 8.80367 18.4043 9.03314 19.448 9.50754C19.2251 7.47552 18.3143 5.58075 16.8665 4.13754C15.4204 2.6868 13.521 1.77521 11.4845 1.55454H11.483ZM17.9255 17.9255C16.9505 18.9006 15.7929 19.6741 14.5189 20.2018C13.2449 20.7295 11.8795 21.0011 10.5005 21.0011C9.12159 21.0011 7.75614 20.7295 6.48215 20.2018C5.20817 19.6741 4.0506 18.9006 3.07554 17.9255C2.10047 16.9505 1.32701 15.7929 0.799306 14.5189C0.271604 13.2449 -1.0274e-08 11.8795 0 10.5005C1.0274e-08 9.12159 0.271604 7.75614 0.799306 6.48215C1.32701 5.20817 2.10047 4.0506 3.07554 3.07554C5.04477 1.1063 7.71562 -2.07492e-08 10.5005 0C13.2855 2.07492e-08 15.9563 1.1063 17.9255 3.07554C19.8948 5.04477 21.0011 7.71562 21.0011 10.5005C21.0011 13.2855 19.8948 15.9563 17.9255 17.9255Z" fill="#CC1616"/>
</svg>
