<svg width="22" height="16" viewBox="0 0 22 16" fill="none" xmlns="http://www.w3.org/2000/svg">
<path d="M3 2.5C3 2.5 6 7.5 11 7.5C16 7.5 19 2.5 19 2.5" fill="#CC1616"/>
<path d="M3 2.5C3 2.5 6 7.5 11 7.5C16 7.5 19 2.5 19 2.5" stroke="#CC1616" stroke-width="2"/>
<path d="M3 1V15Z" fill="#CC1616"/>
<path d="M3 1V15" stroke="#CC1616" stroke-width="2" stroke-linecap="round" stroke-linejoin="round"/>
<path d="M19 1V15Z" fill="#CC1616"/>
<path d="M19 1V15" stroke="#CC1616" stroke-width="2" stroke-linecap="round" stroke-linejoin="round"/>
<path d="M1 11.25C1 11.25 7.09385 10.9513 11 11C14.9098 11.0488 21 11.5 21 11.5" fill="#CC1616"/>
<path d="M1 11.25C1 11.25 7.09385 10.9513 11 11C14.9098 11.0488 21 11.5 21 11.5" stroke="#CC1616" stroke-width="2" stroke-linecap="round"/>
<path d="M7 6.5V11Z" fill="#CC1616"/>
<path d="M7 6.5V11" stroke="#CC1616" stroke-width="2" stroke-linecap="round"/>
<path d="M11 7.5V11Z" fill="#CC1616"/>
<path d="M11 7.5V11" stroke="#CC1616" stroke-width="2" stroke-linecap="round"/>
<path d="M15 6.5V11Z" fill="#CC1616"/>
<path d="M15 6.5V11" stroke="#CC1616" stroke-width="2" stroke-linecap="round"/>
<path d="M3 2.5L1 5Z" fill="#CC1616"/>
<path d="M3 2.5L1 5" stroke="#CC1616" stroke-width="2" stroke-linecap="round"/>
<path d="M21 5L19 2.5Z" fill="#CC1616"/>
<path d="M21 5L19 2.5" stroke="#CC1616" stroke-width="2" stroke-linecap="round"/>
</svg>
