<svg width="22" height="22" viewBox="0 0 22 22" fill="none" xmlns="http://www.w3.org/2000/svg">
<path fill-rule="evenodd" clip-rule="evenodd" d="M15.75 1.49868C15.0263 1.49845 14.3145 1.68304 13.682 2.03496C13.0496 2.38688 12.5176 2.89448 12.1363 3.50963C11.755 4.12478 11.5371 4.82711 11.5033 5.55006C11.4695 6.27301 11.6208 6.99262 11.943 7.64068C12.103 7.96068 12.168 8.35068 12.063 8.74268L11.81 9.68868L12.756 9.43568C13.1257 9.34008 13.5176 9.38275 13.858 9.55568C14.4317 9.8404 15.0624 9.99176 15.7028 9.99845C16.3433 10.0051 16.977 9.86699 17.5565 9.59433C18.1361 9.32166 18.6465 8.92153 19.0497 8.42385C19.4528 7.92616 19.7383 7.34379 19.8847 6.72026C20.0311 6.09674 20.0347 5.44818 19.8952 4.82307C19.7557 4.19795 19.4768 3.61245 19.0791 3.11032C18.6815 2.60819 18.1756 2.20243 17.5991 1.92335C17.0226 1.64427 16.3905 1.4991 15.75 1.49868ZM10 5.74868C10.0003 4.49826 10.4082 3.28202 11.1618 2.28426C11.9155 1.28651 12.9739 0.561622 14.1766 0.219461C15.3793 -0.122699 16.6607 -0.0634848 17.8267 0.388131C18.9928 0.839746 19.9798 1.65915 20.6382 2.72216C21.2967 3.78516 21.5906 5.03384 21.4756 6.27895C21.3606 7.52407 20.8428 8.69775 20.0008 9.62214C19.1587 10.5465 18.0383 11.1712 16.8093 11.4016C15.5803 11.6319 14.3097 11.4554 13.19 10.8987C13.1775 10.8921 13.164 10.8877 13.15 10.8857H13.143L12.031 11.1827C11.7937 11.2463 11.5438 11.2464 11.3064 11.1828C11.069 11.1193 10.8526 10.9944 10.6788 10.8207C10.505 10.647 10.38 10.4306 10.3163 10.1933C10.2526 9.95595 10.2525 9.70605 10.316 9.46868L10.614 8.35568V8.34868C10.6116 8.33465 10.6069 8.32113 10.6 8.30868C10.2043 7.51339 9.99886 6.63699 10 5.74868ZM2.468 2.84068C3.694 1.55068 5.722 1.79168 6.736 3.22568L7.996 5.00868C8.807 6.15568 8.739 7.74868 7.771 8.76868L7.526 9.02568C7.526 9.02768 7.526 9.02968 7.524 9.03168C7.511 9.06868 7.479 9.18368 7.511 9.40368C7.578 9.85968 7.929 10.7847 9.357 12.2877C10.789 13.7957 11.657 14.1517 12.06 14.2167C12.1571 14.2384 12.2581 14.236 12.354 14.2097L12.762 13.7797C13.636 12.8597 14.998 12.6787 16.097 13.3107L18.007 14.4107C19.64 15.3507 20.02 17.6497 18.715 19.0237L17.295 20.5187C16.852 20.9857 16.247 21.3847 15.5 21.4587C13.676 21.6387 9.451 21.4037 5.022 16.7407C0.888001 12.3887 0.103001 8.60368 0.00400125 6.75468C-0.0449987 5.84068 0.362001 5.05768 0.898001 4.49368L2.468 2.84068ZM5.511 4.09068C4.999 3.36668 4.078 3.32368 3.555 3.87368L1.985 5.52668C1.655 5.87568 1.48 6.27468 1.502 6.67468C1.582 8.18468 2.233 11.6267 6.109 15.7077C10.173 19.9867 13.918 20.1077 15.353 19.9657C15.636 19.9377 15.928 19.7797 16.207 19.4857L17.627 17.9907C18.241 17.3457 18.08 16.1827 17.259 15.7107L15.349 14.6107C14.836 14.3157 14.235 14.4067 13.85 14.8127L13.395 15.2927L12.851 14.7757C13.394 15.2927 13.394 15.2927 13.393 15.2937L13.392 15.2957L13.389 15.2987L13.382 15.3047L13.368 15.3187C13.326 15.3599 13.2805 15.3974 13.232 15.4307C13.152 15.4877 13.046 15.5507 12.911 15.6027C12.635 15.7127 12.271 15.7707 11.82 15.6977C10.942 15.5547 9.792 14.9247 8.27 13.3207C6.742 11.7127 6.157 10.5137 6.027 9.62068C5.96 9.16668 6.013 8.80368 6.111 8.52868C6.16541 8.37544 6.24298 8.23143 6.341 8.10168L6.371 8.06468L6.385 8.04968L6.391 8.04368L6.394 8.04068L6.396 8.03868C6.396 8.03868 6.397 8.03768 6.941 8.55368L6.397 8.03768L6.684 7.73568C7.129 7.26568 7.194 6.47168 6.772 5.87568L5.511 4.09068Z" fill="white"/>
</svg>
