<svg width="12" height="20" viewBox="0 0 12 20" fill="none" xmlns="http://www.w3.org/2000/svg">
<path d="M0.43918 0.43918C0.157973 0.720471 0 1.10193 0 1.49968C0 1.89743 0.157973 2.27889 0.43918 2.56018L7.86418 9.98518L0.43918 17.4102C0.165943 17.6931 0.0147506 18.072 0.0181682 18.4653C0.0215858 18.8586 0.17934 19.2348 0.457452 19.5129C0.735564 19.791 1.11178 19.9488 1.50508 19.9522C1.89837 19.9556 2.27728 19.8044 2.56018 19.5312L11.0457 11.0457C11.3269 10.7644 11.4849 10.3829 11.4849 9.98518C11.4849 9.58743 11.3269 9.20597 11.0457 8.92468L2.56018 0.43918C2.27889 0.157973 1.89743 0 1.49968 0C1.10193 0 0.720471 0.157973 0.43918 0.43918Z" fill="#CC1616"/>
</svg>
