<svg width="17" height="24" viewBox="0 0 17 24" fill="none" xmlns="http://www.w3.org/2000/svg">
<path d="M8.4 24C8.4 24 0 13.044 0 8.4C-1.64375e-08 7.2969 0.217273 6.20459 0.639412 5.18546C1.06155 4.16632 1.68029 3.24032 2.4603 2.4603C3.24032 1.68029 4.16632 1.06155 5.18546 0.639412C6.20459 0.217272 7.2969 0 8.4 0C9.5031 0 10.5954 0.217272 11.6145 0.639412C12.6337 1.06155 13.5597 1.68029 14.3397 2.4603C15.1197 3.24032 15.7384 4.16632 16.1606 5.18546C16.5827 6.20459 16.8 7.2969 16.8 8.4C16.8 13.044 8.4 24 8.4 24ZM8.4 10.8C9.03652 10.8 9.64697 10.5471 10.0971 10.0971C10.5471 9.64697 10.8 9.03652 10.8 8.4C10.8 7.76348 10.5471 7.15303 10.0971 6.70294C9.64697 6.25286 9.03652 6 8.4 6C7.76348 6 7.15303 6.25286 6.70294 6.70294C6.25286 7.15303 6 7.76348 6 8.4C6 9.03652 6.25286 9.64697 6.70294 10.0971C7.15303 10.5471 7.76348 10.8 8.4 10.8Z" fill="#CC1616"/>
</svg>
